<?xml version="1.0" encoding="UTF-8"?>
<svg version="1.1" viewBox="0 0 1024 1024" width="1280" height="1280" xmlns="http://www.w3.org/2000/svg">
<path transform="translate(490,32)" d="m0 0h41l28 2 32 4 30 6 30 8 30 10 29 12 34 17 17 10 20 13 18 13 14 11 13 11 20 18 18 18 7 8 12 14 13 17 11 15 13 20 13 22 11 21 12 27 11 29 9 30 7 30 5 31 3 30 1 21v22l-1 25-4 36-6 32-8 32-11 33-12 29-13 27-13 23-14 22-10 14-10 13-13 16-11 12-7 8-21 21-8 7-14 12-17 13-17 12-17 11-15 9-26 14-29 13-27 10-29 9-29 7-37 6-30 3-20 1h-21l-36-2-36-5-25-5-28-7-33-11-29-12-27-13-23-13-19-12-20-14-16-13-11-9-10-9-12-11-17-17-7-8-13-15-13-17-14-19-11-18-9-15-12-23-10-21-11-28-9-27-9-36-5-27-3-23-2-25v-51l3-33 5-32 7-30 9-31 10-27 11-25 8-16 11-21 15-24 14-20 11-14 13-16 14-15 12-13 15-14 14-12 16-13 18-13 23-15 21-12 23-12 27-12 28-10 26-8 30-7 30-5 27-3zm7 104-20 3-21 6-18 8-16 10-10 8-10 9-9 9-11 15-12 21-8 21-4 14-3 17-1 23 2 21 5 21 7 19 8 15 12 17 14 15 13 11 9 6 1 2-131-1-34 1-5 5-2 4v43l3 7 5 3 4 1h494l7-3 3-3 2-8v-36l-2-8-5-5-12-1h-136l-17 1 5-5 14-11 16-16 13-18 9-17 6-15 6-25 1-8v-32l-3-19-6-21-8-18-8-15-11-15-11-12-12-11-16-11-17-9-19-7-17-4-15-2zm-208 379v310l4 11 6 8 7 6 12 5 6 1h376l12-3 10-6 7-8 4-8 2-9v-307z" fill="#4066FD"/>
<path transform="translate(395,47)" d="m0 0 4 1 3 3h3l-1 4-7 1-7 4v2l-3 3-4 3 5 1v-2h2v-2l12 2 10 4 6 2 6 5 2-6 3 2v3l4 1 1 4-3 7-2 5-3 3h-2l-2 5-4 5h-2l-1 4h-2l-1 5-2 6-4 7-2 6-6 8-6 4-1-6-3 6h-2l-1 5-5 5-3 6-4 7-5 1-2 3h3l1 3-3 5 4-1 1-3 7-4h2v2l7-5 5-1-6 7-1 2h-2v2l-3 3-5 9-6 5-9 19-3 3-4 11 1 18 1 1 2-3v-4l-1-3 5-1v-2h3l-2 9-4 14-3 17-1 23 2 21 5 21 7 19 8 15 12 17 14 15 11 9 11 8v2h-131l-34 1-5 5-1 3v43l3 7 8 3 130 1v1l-18 1 3 2-1 5-2 6h5l4 4-6 3-8 2h-83l1 311 4 11 6 8 8 6 10 4 12 2 37 2 7 2 1 2h-2v4l-3 1 1 1h10l26 9 9 4 6 4h4l3-1 9 5 1 7 5 2 1 5-4 13-7 4-5 5-4 5-6 3-5-4-6 5-7 3-6 3h-3l-2 4-3 2-6-3-2 1 5 2v3l9 9 3 2v2l3-1 6 2v2l-8-1-9-2-4 1v3l7 2 8 4 10 4v2l5 2-1 2-36-9-33-11-29-12-27-13-23-13-19-12-20-14-16-13-11-9-10-9-12-11-17-17-7-8-13-15-13-17-14-19-11-18-9-15-12-23-10-21-11-28-9-27-9-36-5-27-3-23-2-25v-51l3-33 5-32 7-30 9-31 10-27 11-25 8-16 11-21 15-24 14-20 11-14 13-16 14-15 12-13 15-14 14-12 16-13 18-13 23-15 21-12 23-12 27-12 28-10 19-6 5 1v3l7-1 4-1z" fill="#0EA9FE"/>
<path transform="translate(490,32)" d="m0 0h41l28 2 32 4 30 6 16 4-1 3h-7l-6-2h-2l1 5 6 4 5 1h7l3 4v4l9-1 1 4h9l3 1 1 2h7v3l-7 3 7 1 8 6 5 6 3 3-6 2 8 9 1 9 2 7 3 9-3 2-3-2 1 5-1 2h-2l-1 5-2 4-2 1 2 6-1 4-4 1-2 1 1 9 5 10 3 13 1 2-1 7 2 6v2h-2v6l2 4-1 5-5 5-2 3h-7l-3-3v-2l-4-1 1 10 4 17 1 1v9l-1 4 4 8v19l1 9-1 11-2 6 1 3-2 23-1 9-4 5-2 6 3 1 1 5v10l-4 1-1 8-3 1v2h-2v7l-1 2h-13l-6 2-9 4-5 3h-8v-3l14-14 13-18 9-17 6-15 6-25 1-8v-32l-3-19-6-21-8-18-8-15-11-15-11-12-11-10-16-11-17-9-19-7-17-4-15-2h-29l-20 3-21 6-18 8-16 10-10 8-10 9-8 8-11 15-12 21-5 12h-4v2l-4 2 2 7-5 3-1-2-1-18 5-13 3-1 1-5 8-15 5-4 5-9 2-3h2v-2h2l2-4 4-4-6 2-3 3h-2v-2l-9 5-3 3h-2l2-6v-2h-3l2-4 2-1 3 1 2-6 3-4 3-5 3-3 2-5h2l2-6 2-1 1 6 5-4 6-8 2-7 3-5 2-6 2-5h2l1-4 5-5 3-5 5-4 3-9 1-4-1-2-3-1-2-4-1 4-3 2-5-5-6-2-13-5h-6l-3-2v2h-2v2l-7-1 4-2-6-1v-1l8-1 5-5 4-3h6l2-1 1-3-4 1-3-4-3-1v5l-4 2h-7v-3h-2v-2l34-8 30-5 27-3z" fill="#2885FE"/>
<path transform="translate(330,856)" d="m0 0h268v1l-12 1h15l28 2v2h6v2l4-1 3 1v2l3 2 7 6 6 2 4 3 5 1h3l5 3 4 5v5l4 6-1 5h-2l-2 5-6 10h-2l1 5-6 5-3 6-4 3-2-2-4 2-1 4-3 3 4 1-5 6-7 4-7 2-11 2-2 5 4 2-2 1-1 3-3 3 1 4 4 1-24 5-26 4-30 3-20 1h-21l-36-2-36-5-16-3-3-3-2-1v-2l-9-2-6-4-10-4v-3l5-2 16 4v-2l-9-1v-2l-4-1-4-5-5-6 1-2-5-1v-3l9 3 4-5 12-6 5-2 5-4 6 4 5-3 6-7h2l1-3 5-3h2l1-6 2-9-1-3-4-2-1-7-6-2-5-2-4 2-5-4-5-3-9-3-23-8h-10l-3-2 5-1 1-5-10-2-34-2z" fill="#2885FD"/>
<path transform="translate(461,589)" d="m0 0h18l14 3 14 7 3 2 5-1 12-7 14-4h22l16 4 16 8 11 9 9 11 7 14 3 11 1 14-3 17-5 12-8 14-13 15-10 10-14 11-16 11-20 12-17 9-6 2-8-1-16-8-23-13-11-8-12-9-10-9-8-7v-2h-2l-9-11-9-14-6-15-2-10v-14l4-16 8-16 11-12 8-7 11-6 10-4zm0 25-10 3-9 5-7 6-6 9-5 13-1 10 2 10 5 12 8 11 11 12 8 7 16 12 17 11 20 11 6-1 18-10 21-14 14-11 13-12 10-13 6-12 2-6v-14l-4-13-7-11-8-7-14-7-5-1h-17l-10 3-11 7-8 6h-8l-15-10-11-5-4-1z" fill="#2885FE"/>
<path transform="translate(507,193)" d="m0 0h10l6 5 1 2v16h26l15 1 6 5 2 8-3 7-4 4-4 1h-36l-1 1v38l12 1 11 4 9 6 8 9 5 10 2 7v16l-3 10-7 11-7 7-14 7-10 2h-7l1 3v8l-2 7-7 6h-8l-8-7-1-4v-13h-40l-5-4-3-6 1-9 7-6h40v-39l-11-1-14-5-9-7-6-7-5-10-2-6-1-11 2-12 7-14 8-8 8-5 13-4 10-1v-15l6-7zm-12 48-11 4-5 5-3 8 1 10 4 6 7 6 6 2 5-1v-40zm30 65v40h7l9-5 5-6 1-3v-12l-6-9-4-3-7-2z" fill="#2885FE"/>
<path transform="translate(395,490)" d="m0 0h165l2 1h17l6 1h29l7 2v3h3l1 5 6 2 1 4 2 1-9 1-5 3 115 1v1h-446v-1l83-1 10-3 3-2-3-2-5-1 1-6 1-5-5-2v-1z" fill="#2984FD"/>
<path transform="translate(972,455)" d="m0 0 7 1 6 9 4 10 2 4 1 21v22l-1 25-4 36-6 32-8 32-7 22-5 1v5l-5 5v8l-4 4-5 6-1-4 1-8 3-12 2-1-1-4 2-4v-6l-2-6 3-3h4l-1-16h2l-1-6-3-1 2-11 1-11 1-3 1-18 3-8v-7l3-19 2-11-1-25 1-3 1-12-1-6v-10l1-17 2-10z" fill="#4952FD"/>
<path transform="translate(65,337)" d="m0 0 3 1v7l-2 12-1 7 1 5h2v6l-5 1 1 7 1 5-2 3 1 4-2 12v8l-2 16v35l-2 9-3 1-3-3 1-5-1-1v-5l-3-1-1 1 2 2-3 3-1 6v9l-3 26-2 26v14l2 23 3 6v15l5 7v13l4 10 2 11 6 24 3 9 4 11 2 3 4 13 4 9 3 10 14 28-2 1 1 5-1-2h-4l-17-34-11-27-8-23-7-23-8-34-5-33-3-33v-51l3-33 5-32 7-30 9-31 8-22z" fill="#03BCFE"/>
<path transform="translate(97,746)" d="m0 0 3 1 8 14 3 6 8 11 8 12 1 5-5-1-11-16-12-19-5-9z" fill="#04BAFE"/>
<path transform="translate(604,628)" d="m0 0 6 2 5 11 3 10v9l-2 4-2-1-4-10-1-1v-5l-3-1-2-9-3-7z" fill="#4066FD"/>
<path transform="translate(409,691)" d="m0 0 3 1 5 7v3l7 6 2 5-5-1-7-8-6-10z" fill="#0FA8FE"/>
<path transform="translate(394,46)" d="m0 0h1v6l-4 2h-7v-3h-2v-2z" fill="#2787FE"/>
<path transform="translate(386,410)" d="m0 0 5 2 6 7 1 3h-3v-2l-6-2-2-4-4 1 1-4z" fill="#2985FE"/>
<path transform="translate(363,55)" d="m0 0 2 1-1 5-5 3-6-3 1-3z" fill="#2786FE"/>
<path transform="translate(375,51)" d="m0 0 4 1-5 7h-5l-3-3v-2z" fill="#2787FE"/>
<path transform="translate(398,422)" d="m0 0 4 1 7 2 16 1v1h-22l-9-1 1-2z" fill="#2985FE"/>
<path transform="translate(970,430)" d="m0 0 4 1 1 4-3 8-2-1-1-3v-8z" fill="#4B51FE"/>
<path transform="translate(362,237)" d="m0 0h3l-2 9-2 3-4-9 5-1z" fill="#10A7FE"/>
<path transform="translate(400,666)" d="m0 0 3 3v3h2l1 4-4 2-2-2-1-7z" fill="#0FA7FE"/>
<path transform="translate(623,659)" d="m0 0h2v6l-4 4-1-2h-2v-5l4-2z" fill="#4066FD"/>
<path transform="translate(609,420)" d="m0 0h3v5l4 2h-11l1-5z" fill="#1F93FE"/>
<path transform="translate(611,416)" d="m0 0m-2 1 2 1-4 5-2 4h-6l1-3z" fill="#3674FD"/>
<path transform="translate(673,360)" d="m0 0 5 1 4 4-2 2-5-1v-2h-2z" fill="#2985FE"/>
<path transform="translate(134,802)" d="m0 0 4 4 1 4h-4l-4-7z" fill="#04BAFE"/>
</svg>
